<svg xmlns="http://www.w3.org/2000/svg" viewBox="0 0 1200 675"><defs><linearGradient id="bg" x1="0" y1="0" x2="1" y2="1"><stop stop-color="#f0fdfa"/><stop offset="1" stop-color="#e0f2fe"/></linearGradient></defs><rect width="1200" height="675" rx="42" fill="url(#bg)"/><path d="M600 90v500" stroke="#94a3b8" stroke-width="4" stroke-dasharray="16 16"/>
<g transform="translate(100 120)"><rect width="400" height="360" rx="30" fill="#fff" stroke="#b7e4d8" stroke-width="5"/><circle cx="120" cy="105" r="48" fill="#f1c7a5"/><path d="M62 225c18-80 100-93 118 0" fill="#0f766e"/><rect x="220" y="90" width="120" height="190" rx="18" fill="#e2e8f0"/><path d="M245 120h70M245 150h55M245 180h70" stroke="#64748b" stroke-width="10" stroke-linecap="round"/><path d="M80 305h250" stroke="#0f766e" stroke-width="10" stroke-linecap="round"/></g>
<g transform="translate(700 120)"><rect width="400" height="360" rx="30" fill="#fff" stroke="#bfd7f3" stroke-width="5"/><circle cx="120" cy="105" r="48" fill="#c98f6b"/><path d="M62 225c18-80 100-93 118 0" fill="#2563eb"/><rect x="220" y="90" width="120" height="190" rx="18" fill="#e2e8f0"/><path d="M245 120h70M245 150h55M245 180h70" stroke="#64748b" stroke-width="10" stroke-linecap="round"/><path d="M80 305h250" stroke="#2563eb" stroke-width="10" stroke-linecap="round"/></g>
<g transform="translate(475 510)"><rect width="250" height="80" rx="24" fill="#fff" stroke="#fbbf24" stroke-width="5"/><path d="M45 40h160" stroke="#f59e0b" stroke-width="8"/><path d="m190 25 25 15-25 15" fill="none" stroke="#f59e0b" stroke-width="8"/></g></svg>